 http://img542.imageshack.us/img542/2503/pennyshadow.jpg


Nederland
Avontuur
111 minuten

geregisseerd door Steven de Jong
met Levi van Kempen, Tanja Jess en Liza Sips

Lisa is zestien jaar en heeft een speciale band met paarden. In de zomer gaat ze samen met haar moeder en zusje Tess op vakantie naar Ameland. Tess neemt ook haar eigenwijze pony Rakker mee. Ze verblijven op de kampeerboerderij van de zeventienjarige Kai en zijn vader. Kai's moeder is jaren geleden overleden bij een ongeluk met haar geliefde paard Shadow. De zwarte hengst heeft het overleefd, maar is zwaar getraumatiseerd en onbetrouwbaar geworden. Kai zag het ongeluk gebeuren en heeft daardoor een moeilijke band met het paard. Lisa is ervan overtuigd dat ze kan helpen met Shadow, maar Kai wil hier niets van weten. Ze besluit om in het geheim toch het paard te gaan trainen en hem weer vertouwen in mensen te geven.





Screenshots:
 
http://img825.imageshack.us/img825/3111/screenshot1hj.jpg
 
http://img15.imageshack.us/img15/7053/screenshot2rop.jpg
 
http://img15.imageshack.us/img15/6470/screenshot3ld.jpg




INFO;

Video
ID                                       : 0
Format                                   : MPEG-4 Visual
Format profile                           : Advanced Simple@L5
Format settings, BVOP                    : 1
Format settings, QPel                    : No
Format settings, GMC                     : No warppoints
Format settings, Matrix                  : Custom
Codec ID                                 : XVID
Codec ID/Hint                            : XviD
Duration                                 : 1h 39mn
Bit rate                                 : 858 Kbps
Width                                    : 608 pixels
Height                                   : 256 pixels
Display aspect ratio                     : 2.40:1
Frame rate                               : 25.000 fps
Color space                              : YUV
Chroma subsampling                       : 4:2:0
Bit depth                                : 8 bits
Scan type                                : Progressive
Compression mode                         : Lossy
Bits/(Pixel*Frame)                       : 0.220
Stream size                              : 610 MiB (87%)
Writing library                          : XviD 64

Audio
ID                                       : 1
Format                                   : MPEG Audio
Format version                           : Version 1
Format profile                           : Layer 3
Mode                                     : Joint stereo
Mode extension                           : MS Stereo
Codec ID                                 : 55
Codec ID/Hint                            : MP3
Duration                                 : 1h 39mn
Bit rate mode                            : Variable
Bit rate                                 : 114 Kbps
Nominal bit rate                         : 128 Kbps
Channel(s)                               : 2 channels
Sampling rate                            : 48.0 KHz
Compression mode                         : Lossy
Stream size                              : 81.2 MiB (12%)
Alignment                                : Aligned on interleaves
Interleave, duration                     : 24 ms (0.60 video frame)
Interleave, preload duration             : 161 ms
Writing library                          : LAME3.98r



 
http://www.imdb.com/title/tt1864455/ 
http://www.moviemeter.nl/film/72855




Deze film wordt u aangeboden door het DutchReleaseTeam.
Voor de reviews van de nieuwste films, muziek, series, games etc
ga dan eens naar http://www.hetmultimediacafe.be

DutchReleaseteam = Hardcoded Dutch Subs